# Blender 4.0.2
# www.blender.org
o Bipyramid
v 0.500000 -0.000000 -0.500000
v 0.500000 0.000000 0.500000
v 0.000000 1.000000 -0.000000
v -0.500000 -0.000000 -0.500000
v -0.500000 0.000000 0.500000
v 0.000000 -1.000000 0.000000
vn -0.0000 0.4472 0.8944
vn -0.8944 0.4472 -0.0000
vn 0.8944 0.4472 -0.0000
vn -0.0000 0.4472 -0.8944
vn -0.0000 -0.4472 0.8944
vn -0.8944 -0.4472 -0.0000
vn 0.8944 -0.4472 -0.0000
vn -0.0000 -0.4472 -0.8944
vt 1.000000 1.000000
vt 0.500000 0.000000
vt 0.000000 1.000000
s 0
f 2/1/1 3/2/1 5/3/1
f 5/1/2 3/2/2 4/3/2
f 1/1/3 3/2/3 2/3/3
f 4/1/4 3/2/4 1/3/4
f 2/1/5 5/3/5 6/2/5
f 5/1/6 4/3/6 6/2/6
f 1/1/7 2/3/7 6/2/7
f 4/1/8 1/3/8 6/2/8
