# Blender 4.0.2
# www.blender.org
o Lamp
v 0.015007 7.209764 -0.731097
v 0.325880 7.552919 -0.636795
v 0.410674 7.209764 -0.567207
v 0.563812 7.552919 -0.280704
v 0.574564 7.209764 -0.171540
v 0.480262 7.552919 0.139333
v 0.410674 7.209764 0.224127
v 0.124171 7.552919 0.377266
v 0.015007 7.209764 0.388017
v -0.094157 7.552919 0.377266
v -0.380660 7.209764 0.224127
v -0.450248 7.552919 0.139333
v -0.544550 7.209764 -0.171540
v -0.533799 7.552919 -0.280704
v -0.380660 7.209764 -0.567207
v -0.295866 7.552919 -0.636795
v 1.110954 6.630185 -1.267487
v 1.564910 6.630185 -0.171540
v 1.110954 6.630185 0.924407
v 0.015007 6.630185 1.378363
v -1.080940 6.630185 0.924407
v -1.534896 6.630185 -0.171540
v -1.080940 6.630185 -1.267487
v 0.015007 6.630185 -1.721443
vn -0.0000 0.6427 -0.7662
vn -0.1425 0.9556 -0.2577
vn 0.1425 0.9556 -0.2577
vn 0.2837 0.9572 -0.0565
vn 0.5468 0.6342 -0.5466
vn 0.7732 0.6342 0.0001
vn 0.2406 0.9572 0.1607
vn 0.5466 0.6342 0.5468
vn 0.0799 0.9601 0.2679
vn -0.0000 0.6312 0.7756
vn -0.0799 0.9601 0.2679
vn -0.5466 0.6342 0.5468
vn -0.2406 0.9572 0.1607
vn -0.7732 0.6342 0.0001
vn -0.2837 0.9572 -0.0565
vn -0.5468 0.6342 -0.5466
vn -0.3572 0.8631 0.3572
vn 0.3572 0.8631 0.3572
vn -0.0000 0.8631 -0.5051
vn 0.5051 0.8631 -0.0000
vn -0.3572 0.8631 -0.3572
vn 0.3572 0.8631 -0.3572
vn -0.0000 0.8631 0.5051
vn -0.5051 0.8631 -0.0000
vt 0.163934 0.183361
vt 0.130917 0.000000
vt 0.210230 0.004500
vt 0.252777 0.000000
vt 0.220020 0.183361
vt 0.820427 -0.000000
vt 0.827551 0.180998
vt 0.785141 0.174918
vt 0.876468 0.002798
vt 0.883985 0.182425
vt 0.921422 -0.000000
vt 0.429020 -0.000000
vt 0.441257 0.181135
vt 0.399362 0.177242
vt 0.456169 0.001074
vt 0.497766 0.181135
vt 0.511059 -0.000000
vt 0.535787 0.177242
vt 0.334977 0.681019
vt 0.302162 0.497707
vt 0.347031 0.501640
vt 0.391428 0.681019
vt 0.403124 0.500259
vt 0.552175 0.497707
vt 0.119074 0.177634
vt 0.279607 0.486922
vt 0.124256 0.503771
vt 0.774961 0.498751
vt 0.000000 0.487909
vt 0.657490 0.481910
vt 0.395651 0.497707
vt 0.279607 1.000000
vt 0.522893 0.642707
vt 0.569935 0.529139
vt 0.569935 0.611275
vt 0.522893 0.497707
vt 0.435972 0.584628
vt 0.467404 0.508744
vt 0.467404 0.631670
vt 0.435972 0.555786
vt 0.657490 0.486922
vt 0.279607 0.503771
vt 0.931275 0.502703
vt 0.435972 1.000000
s 1
f 1/1/1 16/2/2 2/3/3
f 2/3/3 4/4/4 3/5/5
f 4/6/4 5/7/6 3/8/5
f 4/6/4 6/9/7 5/7/6
f 6/9/7 7/10/8 5/7/6
f 6/9/7 8/11/9 7/10/8
f 8/12/9 9/13/10 7/14/8
f 8/12/9 10/15/11 9/13/10
f 9/13/10 10/15/11 11/16/12
f 11/16/12 10/15/11 12/17/13
f 11/16/12 12/17/13 13/18/14
f 13/19/14 12/20/13 14/21/15
f 13/19/14 14/21/15 15/22/16
f 15/22/16 14/21/15 16/23/2
f 13/18/14 21/24/17 11/16/12
f 1/1/1 15/25/16 16/2/2
f 1/1/1 2/3/3 3/5/5
f 9/13/10 19/26/18 7/14/8
f 3/5/5 24/27/19 1/1/1
f 7/10/8 18/28/20 5/7/6
f 1/1/1 23/29/21 15/25/16
f 3/8/5 18/28/20 17/30/22
f 11/16/12 20/31/23 9/13/10
f 15/22/16 22/32/24 13/19/14
f 14/33/15 2/34/3 16/35/2
f 14/33/15 4/36/4 2/34/3
f 10/37/11 6/38/7 4/36/4
f 14/33/15 12/39/13 10/37/11
f 10/37/11 8/40/9 6/38/7
f 14/33/15 10/37/11 4/36/4
f 13/18/14 22/41/24 21/24/17
f 9/13/10 20/31/23 19/26/18
f 3/5/5 17/42/22 24/27/19
f 7/10/8 19/43/18 18/28/20
f 1/1/1 24/27/19 23/29/21
f 3/8/5 5/7/6 18/28/20
f 11/16/12 21/24/17 20/31/23
f 15/22/16 23/44/21 22/32/24
