# Blender 4.0.2
# www.blender.org
o Mirrors
v -1.994928 7.990000 8.000001
v -0.009212 7.990000 6.034286
v -1.994928 -0.010000 8.000000
v -0.009212 -0.010000 6.034285
v 2.043059 8.000000 8.000001
v 2.043058 0.000000 8.000000
v 4.030463 8.000000 6.012597
v 4.030463 0.000000 6.012596
v 6.019177 8.000000 8.000000
v 6.019176 0.000000 8.000000
v 8.010405 8.000000 6.008772
v 8.010405 0.000000 6.008772
v 10.031021 8.000000 8.000000
v 10.031021 0.000000 8.000000
v 12.095726 8.000000 5.935296
v 12.095726 0.000000 5.935296
v 14.042868 7.999999 8.000000
v 14.042868 0.000000 8.000000
v 16.073475 7.999999 5.969391
v 16.073475 0.000000 5.969391
v -3.987625 7.990000 6.007303
v -3.987626 -0.010000 6.007303
v -6.031986 8.000000 8.000001
v -6.031987 0.000000 8.000000
v -8.148016 8.000000 5.883971
v -8.148017 0.000000 5.883970
v -10.017381 8.000000 8.000000
v -10.017381 0.000000 8.000000
v -12.124702 8.000000 5.892678
v -12.124702 0.000000 5.892678
v -14.020409 8.000000 8.000000
v -14.020409 0.000000 8.000000
v -16.070538 8.000001 5.920062
v -16.070538 0.000000 5.920062
vn -0.7035 -0.0000 -0.7107
vn 0.6917 -0.0000 -0.7222
vn -0.7071 -0.0000 -0.7071
vn 0.7069 -0.0000 -0.7073
vn 0.7019 -0.0000 -0.7123
vn 0.7275 -0.0000 -0.6861
vn 0.7071 -0.0000 -0.7071
vn -0.6980 -0.0000 -0.7161
vn -0.7494 -0.0000 -0.6621
vn -0.7434 -0.0000 -0.6688
vn 0.7122 -0.0000 -0.7020
vt 0.151640 0.991155
vt 0.845347 1.960306
vt 0.151640 1.960306
vt 0.844480 0.005465
vt 0.845347 0.991155
vt 0.150772 0.005465
vt 0.844480 -0.969407
vt 0.150772 -0.969407
vt 0.844480 -1.944601
vt 0.150773 -1.944601
vt 0.844480 -2.921348
vt 0.150773 -3.905331
vt 0.844481 -3.905331
vt 0.844481 -4.918121
vt 0.150773 -4.918121
vt 0.844481 -5.902500
vt 0.150773 -5.902500
vt 0.844481 -6.898565
vt 0.151639 2.937775
vt 0.844480 3.927996
vt 0.150772 3.927996
vt 0.150772 4.965963
vt 0.844480 4.965963
vt 0.150772 5.945301
vt 0.844480 5.945302
vt 0.150772 6.978996
vt 0.844479 6.978996
vt 0.150772 7.962161
vt 0.844479 7.962161
vt 0.150772 8.975139
vt 0.150773 -2.921348
vt 0.150773 -6.898565
vt 0.845347 2.937775
vt 0.844479 8.975139
s 0
f 2/1/1 3/2/1 1/3/1
f 2/1/2 6/4/2 4/5/2
f 5/6/3 8/7/3 6/4/3
f 7/8/4 10/9/4 8/7/4
f 9/10/3 12/11/3 10/9/3
f 12/11/5 13/12/5 14/13/5
f 13/12/3 16/14/3 14/13/3
f 15/15/6 18/16/6 16/14/6
f 17/17/3 20/18/3 18/16/3
f 3/2/7 21/19/7 1/3/7
f 21/19/8 24/20/8 23/21/8
f 24/20/7 25/22/7 23/21/7
f 26/23/9 27/24/9 25/22/9
f 28/25/7 29/26/7 27/24/7
f 30/27/10 31/28/10 29/26/10
f 32/29/11 33/30/11 31/28/11
f 2/1/1 4/5/1 3/2/1
f 2/1/2 5/6/2 6/4/2
f 5/6/3 7/8/3 8/7/3
f 7/8/4 9/10/4 10/9/4
f 9/10/3 11/31/3 12/11/3
f 12/11/5 11/31/5 13/12/5
f 13/12/3 15/15/3 16/14/3
f 15/15/6 17/17/6 18/16/6
f 17/17/3 19/32/3 20/18/3
f 3/2/7 22/33/7 21/19/7
f 21/19/8 22/33/8 24/20/8
f 24/20/7 26/23/7 25/22/7
f 26/23/9 28/25/9 27/24/9
f 28/25/7 30/27/7 29/26/7
f 30/27/10 32/29/10 31/28/10
f 32/29/11 34/34/11 33/30/11
