# Blender 4.0.2
# www.blender.org
o Walls
v -16.000000 0.000000 8.000000
v 16.000000 -0.079773 8.000000
v -16.000000 -0.079773 -8.000000
v 16.000000 -0.079773 -8.000000
v 16.000000 8.041965 8.000000
v 16.000000 8.041965 -8.000000
v -16.000000 8.041965 -8.000000
v -16.000000 8.041965 8.000000
v 16.000000 0.000000 -8.000000
vn -1.0000 -0.0000 -0.0000
vn -0.0000 -0.0000 1.0000
vn 1.0000 -0.0000 -0.0000
vt 2.313505 -0.014449
vt -0.002125 1.003014
vt -0.002125 -0.014449
vt 3.994739 -0.014262
vt 0.004343 1.005773
vt 0.004343 -0.014262
vt 0.003513 -0.013828
vt 2.549323 1.005773
vt 0.003513 1.005773
vt 2.313505 1.003014
vt 3.994739 1.005773
vt 2.549323 -0.013828
s 0
f 2/1/1 6/2/1 4/3/1
f 4/4/2 7/5/2 3/6/2
f 1/7/3 7/8/3 8/9/3
f 2/1/1 5/10/1 6/2/1
f 4/4/2 6/11/2 7/5/2
f 1/7/3 3/12/3 7/8/3
